<svg width="50" height="50" viewBox="0 0 50 50" fill="none" xmlns="http://www.w3.org/2000/svg">
<g clip-path="url(#clip0)">
<path d="M21.0938 46.0938C21.6331 46.0938 22.0703 45.6565 22.0703 45.1172C22.0703 44.5778 21.6331 44.1406 21.0938 44.1406C20.5544 44.1406 20.1172 44.5778 20.1172 45.1172C20.1172 45.6565 20.5544 46.0938 21.0938 46.0938Z" fill="#63E9FF"/>
<path d="M28.9062 46.0938C29.4456 46.0938 29.8828 45.6565 29.8828 45.1172C29.8828 44.5778 29.4456 44.1406 28.9062 44.1406C28.3669 44.1406 27.9297 44.5778 27.9297 45.1172C27.9297 45.6565 28.3669 46.0938 28.9062 46.0938Z" fill="#63E9FF"/>
<path d="M25 46.0938C25.5393 46.0938 25.9766 45.6565 25.9766 45.1172C25.9766 44.5778 25.5393 44.1406 25 44.1406C24.4607 44.1406 24.0234 44.5778 24.0234 45.1172C24.0234 45.6565 24.4607 46.0938 25 46.0938Z" fill="#63E9FF"/>
<path d="M49.5368 37.4506C49.2489 37.2727 48.8894 37.2564 48.5867 37.4078L47.0703 38.166L45.5539 37.4078C45.2512 37.2564 44.8917 37.2727 44.6038 37.4506C44.3158 37.6284 44.1406 37.9428 44.1406 38.2812V42.1875H42.1875V38.2812C42.1875 37.9428 42.0123 37.6284 41.7243 37.4506C41.4364 37.2727 41.0769 37.2564 40.7742 37.4078L39.2578 38.166L37.7414 37.4078C37.4387 37.2564 37.0792 37.2727 36.7913 37.4506C36.5033 37.6284 36.3281 37.9428 36.3281 38.2812V42.1875H34.375V36.3281C34.375 36.0118 34.2218 35.7151 33.964 35.5319C33.7062 35.3488 33.3754 35.3018 33.0769 35.4061L31.8359 35.8389V25.3906C31.8359 25.2859 31.8189 25.1815 31.7854 25.0823C31.7845 25.0796 31.7841 25.0767 31.7831 25.0739L26.6987 10.2445L27.4477 10.6326C27.5892 10.706 27.7434 10.7422 27.8969 10.7422C28.1007 10.7422 28.3035 10.6784 28.4742 10.5533C28.7735 10.3339 28.9227 9.96387 28.8591 9.59824L28.3948 6.93008L30.3641 5.03799C30.6332 4.7793 30.7314 4.38975 30.617 4.03447C30.5025 3.6791 30.1955 3.42002 29.8259 3.36719L27.0929 2.97568L25.8731 0.539551C25.7077 0.208789 25.3697 0 25 0C24.6303 0 24.2923 0.208789 24.1268 0.539355L22.907 2.97549L20.174 3.36699C19.8045 3.41992 19.4974 3.67891 19.3829 4.03428C19.2685 4.38965 19.3666 4.7791 19.6358 5.03779L21.6051 6.92988L21.1408 9.59805C21.0772 9.96367 21.2263 10.3338 21.5257 10.5531C21.8249 10.7725 22.2229 10.8032 22.5522 10.6325L23.3012 10.2444L18.2168 25.0738C18.2158 25.0766 18.2154 25.0795 18.2145 25.0822C18.1813 25.1813 18.1641 25.2861 18.1641 25.3906V35.8389L16.9231 35.4061C16.6244 35.3018 16.2938 35.3487 16.036 35.5319C15.7782 35.7151 15.625 36.0118 15.625 36.3281V42.1875H13.6719V38.2812C13.6719 37.9428 13.4967 37.6284 13.2087 37.4506C12.9208 37.2727 12.5613 37.2564 12.2586 37.4078L10.7422 38.166L9.22578 37.4078C8.92295 37.2564 8.56357 37.2727 8.27568 37.4506C7.98769 37.6284 7.8125 37.9428 7.8125 38.2812V42.1875H5.85938V38.2812C5.85938 37.9428 5.68418 37.6284 5.39619 37.4506C5.1083 37.2727 4.74873 37.2564 4.44609 37.4078L2.92969 38.166L1.41328 37.4078C1.11045 37.2564 0.751074 37.2727 0.463184 37.4506C0.175195 37.6284 0 37.9428 0 38.2812V49.0234C0 49.5628 0.437207 50 0.976562 50H49.0234C49.5628 50 50 49.5628 50 49.0234V38.2812C50 37.9428 49.8248 37.6284 49.5368 37.4506ZM46.0938 39.8613L46.6336 40.1312C46.9085 40.2687 47.2321 40.2687 47.507 40.1312L48.0469 39.8613V42.1875H46.0938V39.8613ZM38.2812 39.8613L38.8211 40.1312C39.096 40.2687 39.4196 40.2687 39.6945 40.1312L40.2344 39.8613V42.1875H38.2812V39.8613ZM29.8828 26.3672V36.0206L28.1212 35.4061C27.9129 35.3334 27.6861 35.3334 27.4779 35.4061L25 36.2704L22.5222 35.4061C22.3139 35.3334 22.0871 35.3334 21.8788 35.4061L20.1172 36.0206V26.3672H29.8828ZM22.4326 5.0165L23.6899 4.83643C24.0068 4.79102 24.2813 4.59316 24.4247 4.30693L25 3.15781L25.5753 4.30693C25.7187 4.59316 25.9932 4.79102 26.3101 4.83643L27.5674 5.0165L26.6671 5.88145C26.433 6.10645 26.326 6.43311 26.3816 6.75303L26.5973 7.99199L25.4494 7.39717C25.3086 7.32412 25.1543 7.2876 25.0001 7.2876C24.8459 7.2876 24.6916 7.32412 24.5508 7.39717L23.4029 7.99199L23.6186 6.75303C23.6742 6.43311 23.5672 6.10645 23.3331 5.88145L22.4326 5.0165ZM25 11.3118L29.4922 24.4141H25.9766V21.2891C25.9766 20.7497 25.5394 20.3125 25 20.3125C24.4606 20.3125 24.0234 20.7497 24.0234 21.2891V24.4141H20.5078L25 11.3118ZM9.76562 39.8613L10.3055 40.1312C10.5804 40.2687 10.904 40.2687 11.1789 40.1312L11.7188 39.8613V42.1875H9.76562V39.8613ZM1.95312 39.8613L2.49297 40.1312C2.76787 40.2687 3.0915 40.2687 3.36641 40.1312L3.90625 39.8613V42.1875H1.95312V39.8613ZM1.95312 44.1406H15.625V48.0469H1.95312V44.1406ZM17.5781 42.1875H21.0938C21.6318 42.1875 22.0703 41.749 22.0703 41.2109C22.0703 40.6729 21.6318 40.2344 21.0938 40.2344H17.5781V37.703L19.0795 38.2268C19.2878 38.2994 19.5146 38.2994 19.7228 38.2268L22.2006 37.3624L24.6784 38.2268C24.8867 38.2994 25.1136 38.2994 25.3217 38.2268L27.7996 37.3624L30.2773 38.2268C30.4856 38.2994 30.7124 38.2994 30.9206 38.2268L32.4219 37.703V40.2344H28.9062C28.3682 40.2344 27.9297 40.6729 27.9297 41.2109C27.9297 41.749 28.3682 42.1875 28.9062 42.1875H32.4219V48.0469H17.5781V42.1875ZM48.0469 48.0469H34.375V44.1406H48.0469V48.0469Z" fill="#63E9FF"/>
<path d="M25 40.2344C24.4619 40.2344 24.0234 40.6729 24.0234 41.2109C24.0234 41.749 24.4619 42.1875 25 42.1875C25.5381 42.1875 25.9766 41.749 25.9766 41.2109C25.9766 40.6729 25.5381 40.2344 25 40.2344Z" fill="#63E9FF"/>
<path d="M25 34.1797C26.6154 34.1797 27.9297 32.8654 27.9297 31.25C27.9297 29.6346 26.6154 28.3203 25 28.3203C23.3846 28.3203 22.0703 29.6346 22.0703 31.25C22.0703 32.8654 23.3846 34.1797 25 34.1797ZM25 30.2734C25.5385 30.2734 25.9766 30.7115 25.9766 31.25C25.9766 31.7885 25.5385 32.2266 25 32.2266C24.4615 32.2266 24.0234 31.7885 24.0234 31.25C24.0234 30.7115 24.4615 30.2734 25 30.2734Z" fill="#63E9FF"/>
</g>
<defs>
<clipPath id="clip0">
<rect width="50" height="50" fill="white"/>
</clipPath>
</defs>
</svg>
