<svg width="50" height="50" viewBox="0 0 50 50" fill="none" xmlns="http://www.w3.org/2000/svg">
<g clip-path="url(#clip0)">
<path d="M4.80772 45.1923H20.271C19.9162 44.6005 19.7115 43.9086 19.7115 43.1699V36.7109L19.5723 36.3355L19.5483 36.4588C19.528 36.5636 19.4904 36.6643 19.4371 36.7566L16.1214 42.4998C15.0336 44.3839 12.6158 45.0316 10.7317 43.9439C9.81905 43.4171 9.16621 42.5662 8.89346 41.5481C8.62071 40.5302 8.76065 39.4669 9.28761 38.5543L12.517 32.9606L13.4099 27.7123V14.1713C13.4099 12.3929 14.4131 10.8492 15.9112 10.0991C15.1834 9.03535 14.7835 7.76816 14.7835 6.45605C14.7837 2.89619 17.6798 0 21.2397 0C24.7995 0 27.6958 2.89619 27.6958 6.45605C27.6958 8.69053 26.5693 10.7086 24.7439 11.8808L29.1654 17.1967L33.8214 20.4869C34.4789 20.9517 34.9161 21.6445 35.0525 22.4381C35.1456 22.9796 35.0907 23.5237 34.8989 24.0236L37.9809 22.4826V21.1539C37.9809 20.7399 38.2457 20.3726 38.6384 20.2417L44.4076 18.3187C44.7008 18.2212 45.0232 18.2702 45.2738 18.4509C45.5246 18.6316 45.6731 18.9218 45.6731 19.2309V23.0771C45.6731 23.491 45.4083 23.8584 45.0156 23.9893L44.754 24.0765L45.6356 45.2341C46.7501 45.4429 47.5962 46.4223 47.5962 47.5963C47.5962 48.9218 46.5179 50.0001 45.1924 50.0001H4.80782C3.48233 50.0001 2.40401 48.9218 2.40401 47.5963C2.40382 46.2707 3.48223 45.1923 4.80772 45.1923ZM33.1571 22.7638C33.1077 22.4766 32.9494 22.2256 32.7114 22.0574L28.1424 18.8286C28.0141 18.7692 27.8991 18.6816 27.8069 18.5708L22.8147 12.5685C22.7861 12.5341 22.76 12.4978 22.7364 12.4597C22.6822 12.3721 22.6165 12.2843 22.5413 12.1986C22.5383 12.1953 22.536 12.1914 22.533 12.1881C22.1647 11.7752 21.638 11.5384 21.0853 11.5384C20.5542 11.5384 20.1237 11.1078 20.1237 10.5769C20.1237 10.0459 20.5542 9.61533 21.0853 9.61533C21.9439 9.61533 22.7704 9.90264 23.4406 10.4185C24.874 9.62646 25.7728 8.12783 25.7728 6.45596C25.7728 3.95654 23.7393 1.92295 21.2397 1.92295C18.7402 1.92295 16.7067 3.95645 16.7067 6.45596C16.7067 7.76289 17.2726 9.00703 18.2592 9.86934C18.5485 10.1223 18.6595 10.5231 18.5414 10.8889C18.4232 11.2546 18.0987 11.5148 17.7161 11.5507C16.3575 11.6781 15.3331 12.8046 15.3331 14.1713V27.7936C15.3331 27.8477 15.3286 27.9016 15.3194 27.9548L14.3841 33.4533C14.3649 33.5658 14.3259 33.6741 14.2689 33.7729L10.9531 39.5159C10.683 39.9837 10.6113 40.5287 10.7511 41.0505C10.8909 41.5724 11.2256 42.0085 11.6934 42.2785C12.6592 42.8359 13.8984 42.504 14.456 41.5383L17.691 35.9349L18.2856 32.866L16.9189 29.1802C16.7343 28.6823 16.9883 28.1289 17.4861 27.9443C17.984 27.7602 18.5374 28.0137 18.722 28.5115L20.1824 32.4501L21.5745 36.2042C21.6143 36.3111 21.6345 36.4244 21.6345 36.5385V43.1699C21.6345 44.2852 22.5417 45.1923 23.6568 45.1923C24.7721 45.1923 25.6792 44.285 25.6792 43.1699V36.6997L23.0778 29.1594C23.0431 29.0584 23.0252 28.9525 23.0252 28.8457V19.2422L20.8994 16.6864C20.5598 16.2781 20.6154 15.6719 21.0237 15.3323C21.432 14.9928 22.0383 15.0482 22.3778 15.4567L24.7259 18.2797L26.0878 19.9171L26.7892 20.5449L31.4517 23.8397C31.6327 23.9679 31.8397 24.0322 32.0464 24.0385H32.0843C32.4253 24.037 32.761 23.8774 32.9726 23.5783C33.141 23.3403 33.2065 23.051 33.1571 22.7638ZM38.9424 25.9615C38.7431 25.9615 38.5458 25.8995 38.3801 25.78C38.1294 25.5992 37.9808 25.3091 37.9808 25V24.6327L35.5262 25.8601C35.3926 25.9268 35.2454 25.9616 35.0962 25.9616H27.4039C26.8729 25.9616 26.4424 25.5311 26.4424 25.0001C26.4424 24.4691 26.8729 24.0386 27.4039 24.0386H28.4011L25.6348 22.0837C25.6047 22.0623 25.5758 22.0395 25.5484 22.0148L24.9487 21.478V28.6847L27.5501 36.225C27.5849 36.326 27.6027 36.4318 27.6027 36.5387V43.1701C27.6027 43.909 27.3981 44.6007 27.0433 45.1925H40.8245L40.0105 25.6577L39.2463 25.9124C39.1471 25.9453 39.0444 25.9615 38.9424 25.9615ZM43.75 20.5648L39.9038 21.847V23.666L40.6138 23.4294H40.6139L40.9937 23.3028L43.75 22.3839V20.5648ZM41.909 25.0247L42.7493 45.1923H43.7092L42.8558 24.7091L41.909 25.0247ZM4.80772 48.077H45.1923C45.4574 48.077 45.673 47.8613 45.673 47.5962C45.673 47.3311 45.4574 47.1154 45.1923 47.1154H4.80772C4.54258 47.1154 4.32696 47.3311 4.32696 47.5962C4.32696 47.8612 4.54258 48.077 4.80772 48.077Z" fill="#4AF3EB"/>
</g>
<defs>
<clipPath id="clip0">
<rect width="50" height="50" fill="white" transform="matrix(-1 0 0 1 50 0)"/>
</clipPath>
</defs>
</svg>
