<svg width="46" height="46" viewBox="0 0 46 46" fill="none" xmlns="http://www.w3.org/2000/svg">
<path d="M4.05052 2.49792H41.9495C44.1829 2.49792 46 4.31501 46 6.54844V39.4516C46 41.685 44.1829 43.5021 41.9495 43.5021H4.05052C1.81709 43.5021 0 41.685 0 39.4516V6.54844C0 4.31501 1.81709 2.49792 4.05052 2.49792ZM4.05052 40.8068H41.9495C42.6967 40.8068 43.3047 40.1988 43.3047 39.4516V34.5008H2.69531V39.4516C2.69531 40.1988 3.30329 40.8068 4.05052 40.8068ZM41.9495 5.19324H4.05052C3.30329 5.19324 2.69531 5.80121 2.69531 6.54844V11.4992H43.3047V6.54844C43.3047 5.80121 42.6967 5.19324 41.9495 5.19324ZM2.69531 14.1945V31.8056H43.3047V14.1945H2.69531Z" fill="#3DD9E5"/>
<path d="M29.3487 26.6653C29.108 27.0822 28.6631 27.3391 28.1816 27.3391H25.5055L24.1674 29.6566C23.9267 30.0736 23.4818 30.3304 23.0003 30.3304C22.5189 30.3304 22.074 30.0736 21.8333 29.6566L20.4952 27.3391H17.819C17.3376 27.3391 16.8927 27.0822 16.652 26.6653C16.4112 26.2483 16.4112 25.7346 16.652 25.3176L17.99 23L16.6519 20.6824C16.4111 20.2654 16.4111 19.7517 16.6519 19.3347C16.8926 18.9178 17.3375 18.6609 17.819 18.6609H20.4951L21.8332 16.3434C22.0739 15.9264 22.5188 15.6696 23.0002 15.6696C23.4817 15.6696 23.9266 15.9264 24.1673 16.3434L25.5054 18.6609H28.1816C28.6631 18.6609 29.108 18.9178 29.3487 19.3347C29.5895 19.7517 29.5895 20.2654 29.3487 20.6824L28.0107 23L29.3488 25.3176C29.5895 25.7346 29.5895 26.2483 29.3487 26.6653ZM23.5603 20.6824L23.0003 19.7125L22.4403 20.6824C22.1996 21.0994 21.7547 21.3562 21.2733 21.3562H20.1533L20.7133 22.3262C20.9541 22.7431 20.9541 23.2569 20.7133 23.6738L20.1533 24.6438H21.2733C21.7547 24.6438 22.1996 24.9006 22.4403 25.3176L23.0003 26.2875L23.5603 25.3176C23.801 24.9006 24.2459 24.6438 24.7274 24.6438H25.8474L25.2874 23.6738C25.0466 23.2569 25.0466 22.7431 25.2874 22.3262L25.8474 21.3562H24.7274C24.2459 21.3562 23.801 21.0994 23.5603 20.6824Z" fill="#3DD9E5"/>
</svg>
