<svg width="53" height="53" viewBox="0 0 53 53" fill="none" xmlns="http://www.w3.org/2000/svg">
<g clip-path="url(#clip0)">
<path d="M51.5743 45.6069C52.5561 44.2191 53.0575 42.5479 52.9948 40.8286C52.9232 38.8565 52.1145 37.0009 50.7179 35.6047L47.2541 32.141C47.9674 29.5187 48.1773 26.8176 47.876 24.1035C47.8287 23.6778 47.445 23.3712 47.0188 23.4177C46.5926 23.4651 46.2857 23.8488 46.333 24.275C46.5793 26.4929 46.4567 28.7015 45.9723 30.8587L44.8611 29.7476C44.2914 29.1778 43.5332 28.864 42.7269 28.864C41.9186 28.864 41.1605 29.1778 40.5919 29.748C39.4161 30.9251 39.4161 32.8401 40.5923 34.0164L43.5094 36.9322C42.6946 38.2557 41.7213 39.4886 40.6089 40.6017C35.755 45.4557 28.7823 47.452 22.137 45.9688L23.2498 44.856C23.8196 44.2859 24.1334 43.5285 24.1334 42.7226C24.1334 41.9147 23.8192 41.1565 23.2494 40.588C22.0731 39.4121 20.1585 39.4121 18.9806 40.588L16.0599 43.5083C14.728 42.6903 13.4915 41.7153 12.3791 40.6017C11.2076 39.4303 10.1879 38.1222 9.34598 36.7151C9.3379 36.6985 9.33183 36.6811 9.32213 36.6653C8.99338 36.1081 8.69335 35.5388 8.4289 34.9699C8.04597 34.1543 7.71521 33.3019 7.44712 32.437C7.43499 32.3981 7.41922 32.3613 7.40183 32.3258C6.64487 29.8442 6.37921 27.2721 6.61374 24.6781C6.65256 24.2511 6.33756 23.8739 5.91056 23.835C5.48477 23.7958 5.10629 24.1112 5.06747 24.5382C4.82445 27.2199 5.07839 29.8806 5.81998 32.4543L2.47675 35.7976C1.08738 37.1865 0.279067 39.0316 0.200218 40.9924C0.131477 42.7016 0.62075 44.3659 1.58717 45.7521L1.50953 45.8297C0.925636 46.4136 0.604171 47.1895 0.604171 48.0148C0.604171 48.8401 0.925636 49.6161 1.50953 50.2L2.94904 51.6395C3.55113 52.242 4.34246 52.5432 5.13379 52.5432C5.92512 52.5432 6.71604 52.242 7.31853 51.6395L7.38808 51.57C8.70589 52.5032 10.2663 52.9969 11.87 52.9969C12.3467 52.9969 12.8275 52.9533 13.3063 52.8647C13.728 52.7867 14.0066 52.3815 13.9286 51.9602C13.8505 51.5384 13.4446 51.2606 13.024 51.3379C11.4389 51.631 9.83485 51.3075 8.50775 50.4507L10.143 48.8155C10.5441 48.4143 10.8211 47.9226 10.9553 47.3861C12.1021 48.1822 13.6928 48.071 14.7138 47.0496L16.7251 45.0388C16.7263 45.0376 16.7275 45.0363 16.7292 45.0347L20.078 41.6862C20.6502 41.1149 21.5806 41.1149 22.1524 41.6866C22.4286 41.962 22.5806 42.33 22.5806 42.7226C22.5806 43.1136 22.4282 43.4816 22.1516 43.7582L20.0813 45.8285C20.078 45.8313 20.0756 45.8341 20.0728 45.837L16.2945 49.6149C16.0891 49.8203 15.8687 50.0124 15.639 50.1862C15.2969 50.4446 15.2294 50.9315 15.4882 51.2736C15.6406 51.4753 15.8727 51.5817 16.1077 51.5817C16.271 51.5817 16.4356 51.5303 16.5755 51.4244C16.8618 51.2081 17.1367 50.9687 17.3923 50.7127L20.8548 47.251C22.7177 47.7556 24.6117 48.0023 26.492 48.0023C28.5125 48.0023 30.5157 47.716 32.4437 47.1612L35.8011 50.5198C37.1905 51.9088 39.0356 52.7171 40.9967 52.7956C41.1022 52.8 41.2074 52.802 41.3125 52.802C42.9101 52.802 44.4564 52.3148 45.7568 51.4082L45.8352 51.4867C46.4373 52.0887 47.2287 52.39 48.02 52.39C48.8113 52.39 49.6022 52.0887 50.2047 51.4867L51.6442 50.0471C52.2281 49.4633 52.5496 48.6873 52.5496 47.862C52.5496 47.0367 52.2281 46.2607 51.6442 45.6772L51.5743 45.6069ZM1.75133 41.055C1.81441 39.4849 2.46179 38.0078 3.57418 36.8954L6.36708 34.1029C6.73505 35.077 7.17418 36.0244 7.68043 36.935L6.13902 38.476C5.58303 39.0312 5.27693 39.7704 5.27693 40.5569C5.27693 41.1484 5.45 41.7133 5.77267 42.1933C5.24499 42.3235 4.7452 42.5944 4.33356 43.0057L2.70643 44.6328C2.036 43.5726 1.69998 42.3292 1.75133 41.055ZM9.04514 47.7176L6.78842 49.974C6.78842 49.9744 6.78802 49.9744 6.78761 49.9748L6.2207 50.5417C5.62144 51.1409 4.64613 51.1409 4.04647 50.5417L2.60696 49.1022C2.31663 48.8118 2.1565 48.4257 2.1565 48.0148C2.1565 47.6044 2.31663 47.2183 2.60696 46.9279L3.16214 46.3727C3.16416 46.3707 3.16618 46.3691 3.1678 46.3671L5.4314 44.1039C5.73102 43.8043 6.12446 43.6542 6.51831 43.6542C6.91013 43.6542 7.30155 43.803 7.60078 44.0998L8.976 45.4743L9.04514 45.5434C9.33547 45.8337 9.49519 46.2199 9.49519 46.6303C9.4956 47.0411 9.33547 47.4273 9.04514 47.7176ZM13.616 45.9518C13.3536 46.2146 13.0042 46.3594 12.633 46.3594C12.2618 46.3594 11.9124 46.2146 11.65 45.9518L10.1507 44.4529C10.1507 44.4529 10.143 44.4456 10.143 44.4452L9.47255 43.7747L8.70346 43.0061C8.70184 43.0044 8.69982 43.0028 8.6982 43.0012L7.23685 41.5403C6.97402 41.2778 6.82926 40.9285 6.82926 40.5569C6.82926 40.1857 6.97402 39.8367 7.23685 39.5743L8.51099 38.3001C9.2178 39.3729 10.0221 40.385 10.9141 41.3211L10.515 41.7202C10.2117 42.0235 10.2117 42.5148 10.515 42.818C10.6666 42.9697 10.8656 43.0453 11.0641 43.0453C11.2626 43.0453 11.4616 42.9697 11.6132 42.818L12.0253 42.406C12.9318 43.2313 13.9055 43.9765 14.9346 44.6336L13.616 45.9518ZM41.6906 30.845C41.9659 30.5688 42.3339 30.4168 42.7265 30.4168C43.1188 30.4168 43.4867 30.5692 43.7633 30.8454L49.62 36.7025C51.7073 38.7898 52.0118 42.0643 50.4554 44.488L48.8202 42.8528C48.411 42.444 47.9149 42.1743 47.3908 42.0429C47.7325 41.5536 47.9173 40.9725 47.9173 40.3632C47.9173 39.5771 47.6112 38.8383 47.0552 38.2823L41.6902 32.9185C41.1188 32.3472 41.1188 31.4172 41.6906 30.845ZM41.3198 42.0768L41.7241 42.4812C41.8758 42.6324 42.0747 42.7085 42.2733 42.7085C42.4718 42.7085 42.6707 42.6324 42.8224 42.4808C43.1252 42.1775 43.1252 41.6862 42.822 41.383L42.4039 40.9649C43.2312 40.0567 43.9772 39.0838 44.6339 38.0571L45.9574 39.3802C46.2202 39.6426 46.3645 39.9916 46.3645 40.3632C46.3645 40.7344 46.2202 41.0833 45.9574 41.3462L44.4544 42.8492C44.4531 42.8504 44.4515 42.8516 44.4503 42.8528L43.0108 44.2923C43.0092 44.2935 43.008 44.2952 43.0068 44.2964L41.5446 45.7589C41.0024 46.3008 40.1204 46.3008 39.5778 45.7589L38.2948 44.4755C39.3627 43.7747 40.376 42.9745 41.3198 42.0768ZM41.0586 51.2444C39.4884 51.1814 38.0113 50.534 36.8989 49.422L34.0979 46.6206C34.6179 46.4249 35.1311 46.209 35.6329 45.974C36.0688 45.7707 36.5047 45.5483 36.9337 45.3109L38.48 46.8568C39.4888 47.8652 41.0529 47.9869 42.1956 47.2231C42.3291 47.7633 42.6068 48.2591 43.0104 48.6626L44.6367 50.2885C43.5761 50.959 42.3319 51.295 41.0586 51.2444ZM50.5464 48.9489L49.1065 50.3884C48.5076 50.9877 47.5323 50.9881 46.9327 50.3884L44.1086 47.5644C43.8179 47.2741 43.6582 46.8879 43.6582 46.4775C43.6582 46.0679 43.8175 45.6825 44.1066 45.3926L45.5502 43.949C45.8498 43.6506 46.2424 43.5014 46.6351 43.5014C47.0285 43.5014 47.4223 43.651 47.722 43.9506L49.992 46.2207C49.9924 46.2207 49.9928 46.2211 49.9928 46.2215L50.5464 46.7747C50.8371 47.065 50.9969 47.4512 50.9969 47.862C50.9969 48.2728 50.8367 48.6586 50.5464 48.9489Z" fill="#3BC6EC"/>
<path d="M8.14062 23.2424C8.71036 23.8122 9.46813 24.126 10.274 24.126C11.0823 24.126 11.8405 23.8122 12.409 23.242C13.5849 22.0649 13.5849 20.1499 12.4086 18.9736L9.47864 16.0441C10.2372 14.8108 11.1345 13.6575 12.1543 12.605C12.1761 12.5872 12.1975 12.5686 12.2182 12.548C12.2436 12.5225 12.2663 12.495 12.2877 12.4667C12.318 12.436 12.3488 12.4048 12.3795 12.3737C13.5384 11.2152 14.8295 10.2067 16.2177 9.37214C16.2573 9.35678 16.2961 9.33818 16.3337 9.31594C16.8861 8.98962 17.455 8.68918 18.0268 8.42271C18.8452 8.03938 19.6976 7.70902 20.5609 7.44134C20.6062 7.42718 20.649 7.40818 20.6903 7.38634C24.0157 6.37868 27.5098 6.25374 30.8817 7.01312L29.7564 8.13845C29.1858 8.70859 28.8716 9.46636 28.8716 10.2718C28.8716 11.0789 29.1862 11.8371 29.7564 12.406C30.9331 13.5827 32.8477 13.5827 34.024 12.406L36.9503 9.48011C38.2734 10.2949 39.5022 11.2658 40.6089 12.3737C41.8576 13.6232 42.9328 15.0243 43.805 16.5378C44.1459 17.1306 45.1163 19.1807 45.5369 20.4734C45.5478 20.5308 45.5656 20.5866 45.5894 20.6404C45.5898 20.6416 45.5902 20.6424 45.5902 20.6432C45.7463 21.1588 46.0552 21.1038 46.2991 21.1038H46.2999C46.4984 21.1034 46.6966 21.0278 46.8482 20.8765L50.5291 17.1969C51.9184 15.8075 52.7267 13.9628 52.8052 12.0017C52.8739 10.2929 52.3847 8.62813 51.4182 7.24199L51.4959 7.16435C52.0794 6.58086 52.4008 5.8049 52.4008 4.9792C52.4008 4.15391 52.0794 3.37794 51.4959 2.79446L50.0564 1.35494C48.8514 0.150359 46.8915 0.150359 45.6865 1.35494L45.6169 1.42449C44.2292 0.44271 42.5592 -0.0590984 40.8374 0.00438575C38.8649 0.0763615 37.0093 0.885077 35.6127 2.28173L32.1627 5.73171C28.3427 4.69049 24.3445 4.71839 20.5399 5.81177L17.1995 2.47056C15.8101 1.0816 13.965 0.273284 12.0039 0.194838C10.2967 0.125693 8.6303 0.61537 7.24376 1.58179L7.16612 1.50374C5.96113 0.299163 4.00121 0.299567 2.79622 1.50374L1.35711 2.94326C0.773221 3.52675 0.451756 4.30271 0.451756 5.128C0.451756 5.9537 0.773221 6.72967 1.35711 7.31315L1.42707 7.38311C0.444882 8.77127 -0.0561174 10.4425 0.00615369 12.1618C0.0777251 14.1339 0.886441 15.9891 2.28309 17.3857L8.14062 23.2424ZM42.8301 8.51652C42.8406 8.52704 42.8511 8.53836 42.862 8.54887L45.7681 11.4538C46.031 11.7166 46.1757 12.066 46.1757 12.4372C46.1757 12.8088 46.0314 13.1577 45.7681 13.4202L44.4916 14.6967C43.7864 13.6236 42.9829 12.6111 42.0913 11.6729L42.4904 11.2742C42.7937 10.971 42.7937 10.4793 42.4904 10.1764C42.1872 9.87314 41.6955 9.87314 41.3926 10.1764L40.9822 10.5868C40.076 9.75992 39.1035 9.01348 38.0756 8.35559L39.389 7.04223C39.9312 6.49999 40.814 6.49999 41.3562 7.04223L42.8301 8.51652ZM51.2541 11.9394C51.1914 13.5095 50.544 14.9862 49.4316 16.0986L46.6181 18.9109C46.2194 17.854 45.6343 16.6684 45.3169 16.0675L46.8656 14.5184C47.422 13.9628 47.7281 13.2241 47.7281 12.4376C47.7281 11.846 47.555 11.2815 47.2323 10.8011C47.76 10.6709 48.2602 10.4 48.6718 9.98839L50.2986 8.36165C50.9694 9.42229 51.3054 10.6653 51.2541 11.9394ZM47.8716 2.00313C48.2655 2.00313 48.6589 2.15314 48.9585 2.45277L50.3984 3.89229C50.6888 4.18262 50.8485 4.56837 50.8485 4.9792C50.8485 5.39003 50.6888 5.77619 50.3984 6.06652L49.8336 6.63141C49.8319 6.63302 49.8299 6.63464 49.8287 6.63626L47.574 8.89055C46.9748 9.48981 45.9994 9.48981 45.4002 8.89055L43.9607 7.45104C43.361 6.85138 43.361 5.87607 43.9603 5.27681L46.7847 2.45277C47.0843 2.15274 47.4778 2.00313 47.8716 2.00313ZM36.7109 3.37916C38.7986 1.29146 42.0735 0.986975 44.4981 2.54375L42.8624 4.17898C42.4532 4.58819 42.1831 5.08474 42.0521 5.60919C40.9053 4.8118 39.313 4.92259 38.2912 5.9444L32.927 11.3082C32.3556 11.8796 31.426 11.8796 30.8538 11.3078C30.5768 11.0316 30.4248 10.6637 30.4248 10.2718C30.4248 9.88123 30.5772 9.51327 30.8546 9.23588L36.7109 3.37916ZM7.04441 13.6098C6.78157 13.3474 6.63722 12.9984 6.63722 12.6268C6.63722 12.2556 6.78157 11.9067 7.04441 11.6438L11.4576 7.23147C11.9998 6.68923 12.8817 6.68923 13.424 7.23147L14.692 8.49914C13.6193 9.20474 12.6063 10.0086 11.6686 10.9006L11.2768 10.5088C10.9736 10.2059 10.4823 10.2059 10.179 10.5088C9.87613 10.8121 9.87613 11.3038 10.179 11.607L10.5825 12.0102C9.75563 12.9172 9.0104 13.8917 8.35372 14.9191L7.04441 13.6098ZM11.942 1.74596C13.5121 1.80863 14.9896 2.45601 16.102 3.5684L18.8913 6.35806C17.916 6.72603 16.9682 7.16516 16.0584 7.6698L14.5218 6.13324C13.5133 5.12477 11.9485 5.00306 10.8057 5.7677C10.6723 5.22707 10.3945 4.73133 9.99056 4.32778L8.36383 2.70145C9.42486 2.03062 10.6687 1.6946 11.942 1.74596ZM2.45495 4.04109L3.89446 2.60158C4.19409 2.30195 4.58753 2.15233 4.98137 2.15233C5.37522 2.15233 5.76866 2.30195 6.06869 2.60158L6.63115 3.16444C6.63398 3.16687 6.63681 3.1701 6.63965 3.17253L8.89313 5.42561C9.18346 5.71635 9.34318 6.1021 9.34318 6.51293C9.34318 6.92376 9.18346 7.30952 8.89313 7.59984L7.45321 9.03936C6.85395 9.63862 5.87864 9.63902 5.27898 9.03936L2.45495 6.21532C2.16421 5.92499 2.00449 5.53883 2.00449 5.128C2.00449 4.71758 2.16421 4.33142 2.45495 4.04109ZM2.54633 8.50237L4.18115 10.1372C4.59036 10.5464 5.08691 10.8161 5.61096 10.9475C5.26928 11.4368 5.08449 12.0175 5.08449 12.6268C5.08449 13.4129 5.39099 14.1521 5.94658 14.7076L11.3108 20.0715C11.8821 20.6428 11.8821 21.5728 11.3104 22.145C11.0346 22.4212 10.6666 22.5732 10.274 22.5732C9.883 22.5732 9.51503 22.4212 9.23845 22.1446L3.38092 16.2875C1.29323 14.2002 0.989148 10.9261 2.54633 8.50237Z" fill="#3BC6EC"/>
<path d="M16.0406 29.2331L12.2303 32.6103C11.629 33.1432 11.5732 34.0659 12.1062 34.6672L14.2056 37.0355C14.208 37.038 14.21 37.0408 14.2121 37.0436C14.2141 37.0457 14.2157 37.0473 14.2177 37.0489L16.2314 39.3206C16.5185 39.6449 16.9197 39.8102 17.3224 39.8102C17.6661 39.8102 18.011 39.6897 18.288 39.4443L22.0983 36.0667C22.6999 35.5342 22.7553 34.611 22.2224 34.0097L18.0975 29.3568C17.5646 28.7555 16.6419 28.7001 16.0406 29.2331ZM16.9989 30.4583L18.4958 32.1465L14.8518 35.4242L13.3314 33.7089L16.9989 30.4583ZM17.3297 38.2191L15.8821 36.5859L19.5257 33.3086L20.9972 34.9681L17.3297 38.2191Z" fill="#3BC6EC"/>
<path d="M35.0075 13.8224L29.5418 18.6666C29.2268 18.946 29.0396 19.3313 29.0141 19.7515C28.989 20.1716 29.1285 20.5764 29.4079 20.8913L33.3755 25.3668C33.6545 25.6818 34.0399 25.869 34.46 25.8945C34.4923 25.8965 34.5247 25.8973 34.5566 25.8973C34.942 25.8973 35.3095 25.7582 35.5999 25.5006L41.0656 20.656C41.3806 20.377 41.5678 19.9917 41.5933 19.5715C41.6187 19.151 41.4788 18.7462 41.1994 18.4312L37.2323 13.9562C36.6557 13.306 35.6577 13.2462 35.0075 13.8224ZM40.0434 19.4781C40.043 19.4878 40.0385 19.4919 40.0357 19.4939V19.4943L34.57 24.3385C34.5671 24.3409 34.5639 24.3458 34.5534 24.3446C34.5437 24.3442 34.5396 24.3393 34.5372 24.3369L30.5701 19.8614C30.5676 19.859 30.5636 19.8542 30.564 19.8449C30.5648 19.8352 30.5693 19.8311 30.5717 19.8287L36.0374 14.9845C36.0418 14.9804 36.0475 14.9784 36.0528 14.9784C36.0596 14.9784 36.0657 14.9808 36.0701 14.9861L40.0377 19.4615C40.0401 19.464 40.0442 19.4688 40.0434 19.4781Z" fill="#3BC6EC"/>
</g>
<defs>
<clipPath id="clip0">
<rect width="53" height="53" fill="white"/>
</clipPath>
</defs>
</svg>
