<svg width="57" height="57" viewBox="0 0 57 57" fill="none" xmlns="http://www.w3.org/2000/svg">
<g clip-path="url(#clip0)">
<path d="M56.2876 8.75928C55.8946 7.83191 55.3324 6.99807 54.6177 6.28223C53.9017 5.56628 53.068 5.00529 52.1406 4.6123C51.1799 4.20596 50.159 4 49.1069 4H1.01318C0.720391 4 0.433164 4.11901 0.226094 4.32619C0.0190234 4.53337 -0.100098 4.82049 -0.100098 5.11328V15.6895C-0.100098 16.7415 0.105859 17.7624 0.512207 18.7231C0.905195 19.6505 1.4674 20.4842 2.18213 21.2002C2.89797 21.9149 3.73182 22.4771 4.65918 22.8701C5.61994 23.2764 6.64082 23.4824 7.69287 23.4824H32.6304C32.9543 23.4824 33.2627 23.3409 33.4742 23.095L36.5914 19.4746H42.4272C44.2653 19.4779 45.7637 20.9764 45.7671 22.8145V33.7803H43.5405C43.0239 33.7803 42.5752 34.1356 42.4569 34.6386L41.5455 38.5117H36.7687C38.02 37.79 38.8647 36.439 38.8647 34.8936C38.8647 32.5915 36.992 30.7188 34.6899 30.7188H4.07471C1.77266 30.7188 -0.100098 32.5915 -0.100098 34.8936C-0.100098 36.9181 1.3485 38.6099 3.26357 38.9886L8.03699 52.2482C8.19607 52.6898 8.615 52.9844 9.08447 52.9844H29.6802C30.1496 52.9844 30.5686 52.6898 30.7277 52.2482L31.0638 51.3145H49.1069C50.159 51.3145 51.1799 51.1084 52.1406 50.7021C53.068 50.3092 53.9017 49.747 54.6177 49.0322C55.3324 48.3163 55.8946 47.4825 56.2876 46.5552C56.6938 45.5944 56.8999 44.5735 56.8999 43.5215V23.8253C56.8999 23.2118 56.4 22.712 55.7866 22.712C55.1732 22.712 54.6733 23.2118 54.6733 23.8253V43.5215C54.6722 45.0066 54.0933 46.4048 53.0434 47.4569C51.9902 48.5079 50.5921 49.0879 49.1069 49.0879H38.8647V40.7383H44.6538C45.5467 40.7383 46.385 40.3909 47.0151 39.7597C47.6463 39.1296 47.9937 38.2913 47.9937 37.3984V22.8145C47.9937 22.063 47.8467 21.3338 47.556 20.648C47.2755 19.9845 46.8748 19.39 46.3626 18.8789C45.8516 18.3668 45.2571 17.9661 44.5936 17.6855C43.9078 17.3949 43.1786 17.2479 42.4271 17.2479H36.0814C35.7564 17.2479 35.449 17.3893 35.2376 17.6352L32.1194 21.2559H29.9585V16.2461C29.9585 15.6313 29.46 15.1328 28.8452 15.1328H9.91943C9.30468 15.1328 8.80615 15.6313 8.80615 16.2461V21.2559H7.69287C6.20775 21.2547 4.80947 20.6758 3.75631 19.6249C2.70537 18.5727 2.12646 17.1746 2.12646 15.6895V6.22656H49.1069C50.5932 6.22656 51.9902 6.80658 53.0434 7.85741C54.0933 8.90957 54.6722 10.3066 54.6733 11.793V13.8058C54.6733 14.4192 55.1732 14.9191 55.7866 14.9191C56.4012 14.9191 56.8999 14.4192 56.8999 13.8058C56.8999 13.8046 56.8999 13.8046 56.8999 13.8034V11.793C56.8999 10.7409 56.6938 9.72004 56.2876 8.75928ZM2.12646 34.8936C2.12646 33.8193 3.0005 32.9453 4.07471 32.9453H34.6899C35.7641 32.9453 36.6382 33.8193 36.6382 34.8936C36.6382 35.9678 35.7641 36.8418 34.6899 36.8418H4.07471C3.0005 36.8418 2.12646 35.9678 2.12646 34.8936ZM9.86689 50.7578L5.65868 39.0684H33.1059L28.8977 50.7578H9.86689ZM34.8712 40.7383H36.6382V49.0879H31.8653L34.8712 40.7383ZM44.6538 38.5117H43.8329L44.4222 36.0068H45.7671V37.3984C45.766 38.0107 45.2661 38.5106 44.6538 38.5117ZM11.0327 17.3594H27.7319V21.2559H11.0327V17.3594Z" fill="#63E9FF"/>
<rect x="54.7002" y="13" width="2.2" height="12" fill="#63E9FF"/>
</g>
<defs>
<clipPath id="clip0">
<rect width="57" height="57" fill="white"/>
</clipPath>
</defs>
</svg>
