<svg width="50" height="50" viewBox="0 0 50 50" fill="none" xmlns="http://www.w3.org/2000/svg">
<g clip-path="url(#clip0)">
<path d="M29.1665 8.33333H12.4998C12.0398 8.33333 11.6665 7.96083 11.6665 7.5V0.833333C11.6665 0.3725 12.0398 0 12.4998 0H29.1665C29.6265 0 29.9998 0.3725 29.9998 0.833333V7.5C29.9998 7.96083 29.6265 8.33333 29.1665 8.33333ZM13.3332 6.66667H28.3332V1.66667H13.3332V6.66667Z" fill="#4AF3EB"/>
<path d="M36.6668 46.6667H4.16683C3.70683 46.6667 3.3335 46.2942 3.3335 45.8333V5.83333C3.3335 5.3725 3.70683 5 4.16683 5H12.5002C12.9602 5 13.3335 5.3725 13.3335 5.83333V6.66667H28.3335V5.83333C28.3335 5.3725 28.7068 5 29.1668 5H36.6668C37.1268 5 37.5002 5.3725 37.5002 5.83333V45.8333C37.5002 46.2942 37.1268 46.6667 36.6668 46.6667ZM5.00016 45H35.8335V6.66667H30.0002V7.5C30.0002 7.96083 29.6268 8.33333 29.1668 8.33333H12.5002C12.0402 8.33333 11.6668 7.96083 11.6668 7.5V6.66667H5.00016V45Z" fill="#4AF3EB"/>
<path d="M37.8125 50.0001H3.02083C1.355 50.0001 0 48.6451 0 46.9792V4.68758C0 3.02175 1.355 1.66675 3.02083 1.66675H12.5C12.96 1.66675 13.3333 2.03925 13.3333 2.50008V6.66675H28.3333V2.50008C28.3333 2.03925 28.7067 1.66675 29.1667 1.66675H37.8125C39.4783 1.66675 40.8333 3.02175 40.8333 4.68758V46.9792C40.8333 48.6451 39.4783 50.0001 37.8125 50.0001ZM3.02083 3.33341C2.27417 3.33341 1.66667 3.94091 1.66667 4.68758V46.9792C1.66667 47.7259 2.27417 48.3334 3.02083 48.3334H37.8125C38.5592 48.3334 39.1667 47.7259 39.1667 46.9792V4.68758C39.1667 3.94091 38.5592 3.33341 37.8125 3.33341H30V7.50008C30 7.96091 29.6267 8.33341 29.1667 8.33341H12.5C12.04 8.33341 11.6667 7.96091 11.6667 7.50008V3.33341H3.02083Z" fill="#4AF3EB"/>
<path d="M46.6663 47.5001C46.4038 47.5001 46.1572 47.3767 45.9997 47.1667L43.4997 43.8334C43.3913 43.6892 43.333 43.5142 43.333 43.3334V3.77591C43.333 2.61341 44.2788 1.66675 45.4422 1.66675H47.8905C49.0538 1.66675 49.9997 2.61341 49.9997 3.77591V43.3334C49.9997 43.5142 49.9413 43.6892 49.833 43.8334L47.333 47.1667C47.1755 47.3767 46.9288 47.5001 46.6663 47.5001ZM44.9997 43.0559L46.6663 45.2776L48.333 43.0559V3.77591C48.333 3.53175 48.1347 3.33341 47.8905 3.33341H45.4422C45.198 3.33341 44.9997 3.53175 44.9997 3.77591V43.0559ZM49.1663 43.3334H49.1747H49.1663Z" fill="#4AF3EB"/>
<path d="M46.6419 50.0002C46.1819 50.0002 45.8086 49.6277 45.8086 49.1668V46.6668C45.8086 46.206 46.1819 45.8335 46.6419 45.8335C47.1019 45.8335 47.4752 46.206 47.4752 46.6668V49.1668C47.4752 49.6277 47.1019 50.0002 46.6419 50.0002Z" fill="#4AF3EB"/>
<path d="M49.1663 8.33342H44.1663C43.7063 8.33342 43.333 7.96092 43.333 7.50008V3.77592C43.333 2.61342 44.2788 1.66675 45.4422 1.66675H47.8905C49.0538 1.66675 49.9997 2.61342 49.9997 3.77592V7.50008C49.9997 7.96092 49.6263 8.33342 49.1663 8.33342ZM44.9997 6.66675H48.333V3.77592C48.333 3.53175 48.1347 3.33342 47.8905 3.33342H45.4422C45.198 3.33342 44.9997 3.53175 44.9997 3.77592V6.66675Z" fill="#4AF3EB"/>
<path d="M46.6414 47.5C46.3789 47.5 46.1323 47.3766 45.9748 47.1666L43.4748 43.8333C43.3664 43.6892 43.3081 43.5142 43.3081 43.3333V38.3333C43.3081 37.8725 43.6814 37.5 44.1414 37.5H49.1414C49.6014 37.5 49.9748 37.8725 49.9748 38.3333V43.3333C49.9748 43.5142 49.9164 43.6892 49.8081 43.8333L47.3081 47.1666C47.1506 47.3766 46.9039 47.5 46.6414 47.5ZM44.9748 43.0558L46.6414 45.2775L48.3081 43.0558V39.1667H44.9748V43.0558Z" fill="#4AF3EB"/>
<path d="M49.1663 25.8333H44.1663C43.7063 25.8333 43.333 25.4608 43.333 25V18.3333C43.333 17.8725 43.7063 17.5 44.1663 17.5H49.1663C49.6263 17.5 49.9997 17.8725 49.9997 18.3333V25C49.9997 25.4608 49.6263 25.8333 49.1663 25.8333ZM44.9997 24.1667H48.333V19.1667H44.9997V24.1667Z" fill="#4AF3EB"/>
<path d="M28.3328 21.3332H18.3328C17.8728 21.3332 17.4995 20.9607 17.4995 20.4998C17.4995 20.039 17.8728 19.6665 18.3328 19.6665H28.3328C28.7928 19.6665 29.1662 20.039 29.1662 20.4998C29.1662 20.9607 28.7928 21.3332 28.3328 21.3332Z" fill="#4AF3EB"/>
<path d="M15.0003 21.3332H7.50033C7.04033 21.3332 6.66699 20.9607 6.66699 20.4998C6.66699 20.039 7.04033 19.6665 7.50033 19.6665H15.0003C15.4603 19.6665 15.8337 20.039 15.8337 20.4998C15.8337 20.9607 15.4603 21.3332 15.0003 21.3332Z" fill="#4AF3EB"/>
<path d="M33.333 21.3332H31.6663C31.2063 21.3332 30.833 20.9607 30.833 20.4998C30.833 20.039 31.2063 19.6665 31.6663 19.6665H33.333C33.793 19.6665 34.1663 20.039 34.1663 20.4998C34.1663 20.9607 33.793 21.3332 33.333 21.3332Z" fill="#4AF3EB"/>
<path d="M22.4998 17.1666H12.4998C12.0398 17.1666 11.6665 16.7942 11.6665 16.3333C11.6665 15.8725 12.0398 15.5 12.4998 15.5H22.4998C22.9598 15.5 23.3332 15.8725 23.3332 16.3333C23.3332 16.7942 22.9598 17.1666 22.4998 17.1666Z" fill="#4AF3EB"/>
<path d="M33.3333 17.1666H25.8333C25.3733 17.1666 25 16.7942 25 16.3333C25 15.8725 25.3733 15.5 25.8333 15.5H33.3333C33.7933 15.5 34.1667 15.8725 34.1667 16.3333C34.1667 16.7942 33.7933 17.1666 33.3333 17.1666Z" fill="#4AF3EB"/>
<path d="M9.167 17.1666H7.50033C7.04033 17.1666 6.66699 16.7942 6.66699 16.3333C6.66699 15.8725 7.04033 15.5 7.50033 15.5H9.167C9.627 15.5 10.0003 15.8725 10.0003 16.3333C10.0003 16.7942 9.627 17.1666 9.167 17.1666Z" fill="#4AF3EB"/>
<path d="M22.4998 25.5001H12.4998C12.0398 25.5001 11.6665 25.1277 11.6665 24.6668C11.6665 24.206 12.0398 23.8335 12.4998 23.8335H22.4998C22.9598 23.8335 23.3332 24.206 23.3332 24.6668C23.3332 25.1277 22.9598 25.5001 22.4998 25.5001Z" fill="#4AF3EB"/>
<path d="M33.3333 25.5001H25.8333C25.3733 25.5001 25 25.1277 25 24.6668C25 24.206 25.3733 23.8335 25.8333 23.8335H33.3333C33.7933 23.8335 34.1667 24.206 34.1667 24.6668C34.1667 25.1277 33.7933 25.5001 33.3333 25.5001Z" fill="#4AF3EB"/>
<path d="M9.167 25.5001H7.50033C7.04033 25.5001 6.66699 25.1277 6.66699 24.6668C6.66699 24.206 7.04033 23.8335 7.50033 23.8335H9.167C9.627 23.8335 10.0003 24.206 10.0003 24.6668C10.0003 25.1277 9.627 25.5001 9.167 25.5001Z" fill="#4AF3EB"/>
</g>
<defs>
<clipPath id="clip0">
<rect width="50" height="50" fill="white"/>
</clipPath>
</defs>
</svg>
