<svg width="50" height="50" viewBox="0 0 50 50" fill="none" xmlns="http://www.w3.org/2000/svg">
<g clip-path="url(#clip0)">
<path d="M37.3683 50H12.6317C9.8025 50 7.5 47.6975 7.5 44.8683V5.13167C7.5 2.3025 9.8025 0 12.6317 0H37.3675C40.1975 0 42.5 2.3025 42.5 5.13167V44.8683C42.5 47.6975 40.1975 50 37.3683 50ZM12.6317 1.66667C10.7208 1.66667 9.16667 3.22083 9.16667 5.13167V44.8683C9.16667 46.7792 10.7208 48.3333 12.6317 48.3333H37.3675C39.2792 48.3333 40.8333 46.7792 40.8333 44.8683V5.13167C40.8333 3.22083 39.2792 1.66667 37.3683 1.66667H12.6317Z" fill="#3DD9E6"/>
<path d="M24.9998 46.6666C24.5398 46.6666 24.1665 46.2941 24.1665 45.8333V4.16659C24.1665 3.70575 24.5398 3.33325 24.9998 3.33325C25.4598 3.33325 25.8332 3.70575 25.8332 4.16659V45.8333C25.8332 46.2941 25.4598 46.6666 24.9998 46.6666Z" fill="#3DD9E6"/>
<path d="M16.6668 16.6667C13.4502 16.6667 10.8335 14.0492 10.8335 10.8333C10.8335 7.6175 13.4502 5 16.6668 5C19.8835 5 22.5002 7.6175 22.5002 10.8333C22.5002 14.0492 19.8835 16.6667 16.6668 16.6667ZM16.6668 6.66667C14.3693 6.66667 12.5002 8.53583 12.5002 10.8333C12.5002 13.1308 14.3693 15 16.6668 15C18.9643 15 20.8335 13.1308 20.8335 10.8333C20.8335 8.53583 18.9643 6.66667 16.6668 6.66667Z" fill="#3DD9E6"/>
<path d="M14.9998 11.6668C14.5398 11.6668 14.1665 11.2943 14.1665 10.8335C14.1665 9.45516 15.2882 8.3335 16.6665 8.3335C17.1265 8.3335 17.4998 8.706 17.4998 9.16683C17.4998 9.62766 17.1265 10.0002 16.6665 10.0002C16.2065 10.0002 15.8332 10.3735 15.8332 10.8335C15.8332 11.2943 15.4598 11.6668 14.9998 11.6668Z" fill="#3DD9E6"/>
<path d="M33.3333 16.6667C30.1167 16.6667 27.5 14.0492 27.5 10.8333C27.5 7.6175 30.1167 5 33.3333 5C36.55 5 39.1667 7.6175 39.1667 10.8333C39.1667 14.0492 36.55 16.6667 33.3333 16.6667ZM33.3333 6.66667C31.0358 6.66667 29.1667 8.53583 29.1667 10.8333C29.1667 13.1308 31.0358 15 33.3333 15C35.6308 15 37.5 13.1308 37.5 10.8333C37.5 8.53583 35.6308 6.66667 33.3333 6.66667Z" fill="#3DD9E6"/>
<path d="M31.6668 11.6668C31.2068 11.6668 30.8335 11.2943 30.8335 10.8335C30.8335 9.45516 31.9552 8.3335 33.3335 8.3335C33.7935 8.3335 34.1668 8.706 34.1668 9.16683C34.1668 9.62766 33.7935 10.0002 33.3335 10.0002C32.8735 10.0002 32.5002 10.3735 32.5002 10.8335C32.5002 11.2943 32.1268 11.6668 31.6668 11.6668Z" fill="#3DD9E6"/>
<path d="M16.6668 45.0002C13.4502 45.0002 10.8335 42.3827 10.8335 39.1668C10.8335 35.951 13.4502 33.3335 16.6668 33.3335C19.8835 33.3335 22.5002 35.951 22.5002 39.1668C22.5002 42.3827 19.8835 45.0002 16.6668 45.0002ZM16.6668 35.0002C14.3693 35.0002 12.5002 36.8693 12.5002 39.1668C12.5002 41.4643 14.3693 43.3335 16.6668 43.3335C18.9643 43.3335 20.8335 41.4643 20.8335 39.1668C20.8335 36.8693 18.9643 35.0002 16.6668 35.0002Z" fill="#3DD9E6"/>
<path d="M14.9998 39.9998C14.5398 39.9998 14.1665 39.6273 14.1665 39.1665C14.1665 37.7882 15.2882 36.6665 16.6665 36.6665C17.1265 36.6665 17.4998 37.039 17.4998 37.4998C17.4998 37.9607 17.1265 38.3332 16.6665 38.3332C16.2065 38.3332 15.8332 38.7065 15.8332 39.1665C15.8332 39.6273 15.4598 39.9998 14.9998 39.9998Z" fill="#3DD9E6"/>
<path d="M33.3333 45.0002C30.1167 45.0002 27.5 42.3827 27.5 39.1668C27.5 35.951 30.1167 33.3335 33.3333 33.3335C36.55 33.3335 39.1667 35.951 39.1667 39.1668C39.1667 42.3827 36.55 45.0002 33.3333 45.0002ZM33.3333 35.0002C31.0358 35.0002 29.1667 36.8693 29.1667 39.1668C29.1667 41.4643 31.0358 43.3335 33.3333 43.3335C35.6308 43.3335 37.5 41.4643 37.5 39.1668C37.5 36.8693 35.6308 35.0002 33.3333 35.0002Z" fill="#3DD9E6"/>
<path d="M31.6668 39.9998C31.2068 39.9998 30.8335 39.6273 30.8335 39.1665C30.8335 37.7882 31.9552 36.6665 33.3335 36.6665C33.7935 36.6665 34.1668 37.039 34.1668 37.4998C34.1668 37.9607 33.7935 38.3332 33.3335 38.3332C32.8735 38.3332 32.5002 38.7065 32.5002 39.1665C32.5002 39.6273 32.1268 39.9998 31.6668 39.9998Z" fill="#3DD9E6"/>
<path d="M16.6668 30.8334C13.4502 30.8334 10.8335 28.2159 10.8335 25.0001C10.8335 21.7842 13.4502 19.1667 16.6668 19.1667C19.8835 19.1667 22.5002 21.7842 22.5002 25.0001C22.5002 28.2159 19.8835 30.8334 16.6668 30.8334ZM16.6668 20.8334C14.3693 20.8334 12.5002 22.7026 12.5002 25.0001C12.5002 27.2976 14.3693 29.1667 16.6668 29.1667C18.9643 29.1667 20.8335 27.2976 20.8335 25.0001C20.8335 22.7026 18.9643 20.8334 16.6668 20.8334Z" fill="#3DD9E6"/>
<path d="M14.9998 25.8333C14.5398 25.8333 14.1665 25.4608 14.1665 25C14.1665 23.6217 15.2882 22.5 16.6665 22.5C17.1265 22.5 17.4998 22.8725 17.4998 23.3333C17.4998 23.7942 17.1265 24.1667 16.6665 24.1667C16.2065 24.1667 15.8332 24.54 15.8332 25C15.8332 25.4608 15.4598 25.8333 14.9998 25.8333Z" fill="#3DD9E6"/>
<path d="M33.3333 30.8334C30.1167 30.8334 27.5 28.2159 27.5 25.0001C27.5 21.7842 30.1167 19.1667 33.3333 19.1667C36.55 19.1667 39.1667 21.7842 39.1667 25.0001C39.1667 28.2159 36.55 30.8334 33.3333 30.8334ZM33.3333 20.8334C31.0358 20.8334 29.1667 22.7026 29.1667 25.0001C29.1667 27.2976 31.0358 29.1667 33.3333 29.1667C35.6308 29.1667 37.5 27.2976 37.5 25.0001C37.5 22.7026 35.6308 20.8334 33.3333 20.8334Z" fill="#3DD9E6"/>
<path d="M31.6668 25.8333C31.2068 25.8333 30.8335 25.4608 30.8335 25C30.8335 23.6217 31.9552 22.5 33.3335 22.5C33.7935 22.5 34.1668 22.8725 34.1668 23.3333C34.1668 23.7942 33.7935 24.1667 33.3335 24.1667C32.8735 24.1667 32.5002 24.54 32.5002 25C32.5002 25.4608 32.1268 25.8333 31.6668 25.8333Z" fill="#3DD9E6"/>
</g>
<defs>
<clipPath id="clip0">
<rect width="50" height="50" fill="white"/>
</clipPath>
</defs>
</svg>
