<svg width="56" height="56" viewBox="0 0 56 56" fill="none" xmlns="http://www.w3.org/2000/svg">
<path d="M55.9701 45.6885C55.9602 43.326 54.5566 41.1845 52.3943 40.2327C50.6236 39.4531 47.4251 38.9688 45.676 38.7493C45.6759 38.7493 45.6758 38.7493 45.6758 38.7493C45.5563 38.7343 45.4659 38.6327 45.4654 38.5126L45.4554 36.1365C45.6274 36.0082 45.7968 35.8731 45.9628 35.729C47.2756 34.5887 48.0989 32.9656 48.2707 31.2107C48.5466 31.0215 48.7532 30.7346 48.838 30.3915L48.8664 30.2763C49.0674 29.4642 49.1964 28.6288 49.2506 27.7929C49.2799 27.3397 48.9362 26.9486 48.4831 26.9192C48.0295 26.8882 47.6387 27.2333 47.6093 27.6866C47.5625 28.4097 47.4522 29.1324 47.2812 29.8354C46.9284 29.9236 46.6656 30.2393 46.6587 30.6187C46.6318 32.121 45.9851 33.5311 44.8843 34.487C44.5284 34.7961 44.2794 34.9523 44.1611 35.035C42.1712 36.343 39.6917 36.3634 37.6759 35.0629C37.6648 35.0553 37.3268 34.8446 36.9473 34.5205C35.8382 33.5737 35.1795 32.1482 35.1399 30.6096C35.1302 30.2296 34.8599 29.9154 34.5044 29.8308C34.2501 28.8324 34.12 27.8044 34.1176 26.7727C34.1121 24.4412 34.106 22.5162 34.106 22.5152C34.1028 21.7664 34.7095 21.1544 35.4583 21.1513C36.1426 21.1485 36.754 20.7115 36.9795 20.064C37.166 19.5281 37.6727 19.1665 38.2402 19.1641L43.4151 19.1423H43.4332C45.7431 19.1423 47.6185 21.0072 47.6282 23.3187L47.6295 23.8882C47.6305 24.3417 47.9985 24.7088 48.4519 24.7088H48.4537C48.9078 24.7078 49.2753 24.339 49.2743 23.8848L49.273 23.3132C49.2595 20.1012 46.6422 17.4976 43.4332 17.4976C43.425 17.4976 43.4165 17.4976 43.4083 17.4976L38.2334 17.5195C36.9756 17.5247 35.8521 18.3225 35.4321 19.5066C33.7853 19.5243 32.4544 20.873 32.4615 22.5213C32.4615 22.5214 32.4622 22.7363 32.4633 23.108C31.5358 22.8646 30.5107 22.666 29.5752 22.5113C29.5742 22.5112 29.5734 22.5109 29.5724 22.5108C29.5717 22.5107 29.5711 22.5107 29.5704 22.5106C28.7827 22.3803 28.059 22.2811 27.5115 22.2125H27.5114C27.392 22.1975 27.3016 22.0958 27.3011 21.976L27.291 19.5998C27.4631 19.4715 27.6325 19.3364 27.7984 19.1922C29.0608 18.0959 29.8704 16.538 30.0836 14.8333C31.0452 14.6784 31.7803 13.8406 31.7763 12.8367L31.7707 11.5161C31.7682 10.9469 31.5284 10.4186 31.1224 10.0451L31.1087 6.77643C31.095 3.55621 28.4644 0.951665 25.2439 0.960962L20.069 0.982837C18.81 0.988087 17.6878 1.78565 17.2676 2.96996C15.6208 2.98768 14.29 4.33628 14.297 5.98543L14.3143 10.1159C13.9113 10.4929 13.676 11.0234 13.6784 11.5925L13.684 12.9129C13.6883 13.917 14.4304 14.7487 15.3933 14.8953C15.6209 16.5981 16.4435 18.1491 17.7152 19.2348C17.8824 19.3775 18.0529 19.5112 18.226 19.6379L18.2361 22.014C18.2366 22.1339 18.1471 22.2364 18.0277 22.2523H18.0276C16.2801 22.4866 13.0856 22.9982 11.3218 23.7923C9.1677 24.7624 7.78225 26.9157 7.7922 29.278L7.81572 34.8526H1.98264C0.889438 34.8526 0 35.742 0 36.8351V41.2476C0 42.3408 0.889438 43.2301 1.98264 43.2301H2.56922V45.8316C2.56922 46.2859 2.93737 46.654 3.39161 46.654C3.84584 46.654 4.214 46.2859 4.214 45.8316V43.2301H26.5331C26.1575 44.0234 25.9528 44.9034 25.9567 45.8149L25.9865 52.9001C25.9873 53.0691 26.0096 53.2343 26.048 53.3948H5.29189C4.69755 53.3948 4.21389 52.9112 4.21389 52.3167V49.6751C4.21389 49.2208 3.84573 48.8527 3.3915 48.8527C2.93727 48.8527 2.56911 49.2208 2.56911 49.6751V52.3168C2.56911 53.8182 3.7905 55.0396 5.29178 55.0396H53.857H53.8605C55.0254 55.0347 56.0049 53.997 55.9998 52.7737L55.9701 45.6885ZM38.0391 37.1049C39.8433 37.8482 41.8912 37.892 43.8146 37.0805L43.8208 38.5196C43.8221 38.8496 43.9112 39.1611 44.0647 39.433C42.0793 40.291 39.8013 40.3005 37.8089 39.4593C37.96 39.1862 38.0465 38.874 38.0452 38.544L38.0391 37.1049ZM30.5897 24.979C30.7136 24.8072 30.7991 24.6169 30.8458 24.4188C31.4098 24.5363 31.9637 24.6685 32.468 24.8158C32.4695 25.4044 32.4712 26.0717 32.4729 26.7766C32.4758 28.0059 32.6388 29.2305 32.9575 30.4161C33.048 30.7526 33.2569 31.0329 33.5322 31.2168C33.6717 32.5654 34.1834 33.8279 34.9952 34.8526H25.6795L24.8986 30.184L25.5733 29.0027C25.9295 29.1152 26.293 29.146 26.6647 29.0947C27.3482 29.0004 27.9471 28.6406 28.3508 28.081L30.5897 24.979ZM27.5978 23.8817C28.0533 23.9413 28.6005 24.0187 29.1858 24.1137L27.0173 27.1188C26.8791 27.3101 26.6743 27.4333 26.4404 27.4656C26.2061 27.4979 25.9761 27.4346 25.7914 27.2876L24.2035 26.0247L27.5978 23.8817ZM23.5605 29.2104L22.0303 29.2169L21.395 28.122L22.7882 27.0005L24.1871 28.1132L23.5605 29.2104ZM24.0119 34.8526H21.635L22.2615 30.8607L23.3434 30.8562L24.0119 34.8526ZM22.7812 24.9775L19.5972 23.0047C19.7782 22.7131 19.8823 22.3706 19.8808 22.0072L19.8748 20.5681C20.7764 20.9396 21.7389 21.1319 22.7559 21.139H22.7616C22.7659 21.139 22.77 21.139 22.7743 21.1389C23.791 21.1233 24.7519 20.9229 25.6504 20.5438L25.6564 21.983C25.658 22.3464 25.7649 22.688 25.9485 22.9782L22.7812 24.9775ZM17.2942 4.61442C17.9807 4.61157 18.5915 4.17626 18.8136 3.53117C18.9991 2.99293 19.5063 2.6297 20.0758 2.62729L25.2506 2.60542H25.2686C27.5735 2.60542 29.4539 4.47584 29.4638 6.78321L29.4763 9.74739C29.1019 9.83926 28.6592 10.0108 28.2658 10.3305C28.2439 10.3304 28.2208 10.3298 28.1968 10.3289L28.1868 7.9486C28.1805 6.46274 26.9699 5.25853 25.485 5.25853C25.4812 5.25853 25.4773 5.25853 25.4734 5.25853L25.4513 5.25863C25.0585 5.26027 24.6685 5.32207 24.2925 5.44217C23.2448 5.77685 22.1345 5.7751 21.1048 5.45551C20.7281 5.33848 20.336 5.27799 19.9442 5.28182L19.922 5.28193C18.4323 5.28828 17.2255 6.50529 17.2318 7.99487L17.2401 9.97543C16.8097 9.83959 16.3497 9.77079 15.9573 9.73689L15.9414 5.97854C15.9385 5.22954 16.5453 4.6177 17.2942 4.61442ZM16.9757 14.0728C16.9642 13.6268 16.5994 13.2716 16.1536 13.2716C16.1524 13.2716 16.1512 13.2716 16.15 13.2716L15.6994 13.2735C15.6988 13.2735 15.6983 13.2735 15.6977 13.2735C15.4949 13.2735 15.3295 13.1089 15.3286 12.906L15.323 11.5857C15.3226 11.4901 15.3575 11.4126 15.4052 11.354C16.1081 11.3762 16.9222 11.5218 17.1265 11.7215C17.7819 12.3627 18.8931 11.8997 18.8892 10.9772L18.8765 7.98798C18.874 7.40512 19.3461 6.92912 19.9293 6.9266L19.9514 6.92649C20.1824 6.92638 20.4008 6.9592 20.6173 7.02624C21.9858 7.45084 23.4269 7.44515 24.793 7.00864C25.0091 6.93962 25.2329 6.90407 25.4585 6.9032L25.4807 6.90309H25.4852C26.0659 6.90309 26.5395 7.37428 26.542 7.95549L26.5546 10.9447C26.5552 11.0854 26.6015 11.5628 27.1735 11.799C27.3433 11.8692 28.6752 12.2249 29.2322 11.6704C29.4591 11.4448 29.8076 11.346 30.0544 11.3081C30.0961 11.3643 30.1255 11.436 30.1259 11.523L30.1315 12.8432C30.1324 13.0469 29.9674 13.2132 29.7638 13.214L29.313 13.216C28.8658 13.218 28.502 13.5769 28.4944 14.0242C28.4679 15.563 27.8212 16.9939 26.72 17.9502C26.4975 18.1433 26.268 18.3181 26.0323 18.4753C25.0182 19.1084 24.0566 19.4721 22.7581 19.494C21.2699 19.4817 19.9294 18.9622 18.7832 17.9837C17.6739 17.0369 17.0151 15.6113 16.9757 14.0728ZM17.9554 23.9224L21.365 26.0349L19.7825 27.3085C19.599 27.4563 19.3692 27.5209 19.1355 27.4902C18.9017 27.4597 18.6963 27.3383 18.5569 27.1483L16.3695 24.1687C16.9757 24.0649 17.5283 23.9821 17.9554 23.9224ZM11.9971 25.2921C12.6944 24.9782 13.6928 24.708 14.7118 24.4874C14.7602 24.6847 14.8471 24.874 14.9722 25.0445L17.2312 28.1216C17.6388 28.6768 18.2395 29.0317 18.9224 29.1211C19.2818 29.168 19.6469 29.1402 20.0151 29.021L20.7002 30.2016L19.9702 34.8524H9.4605L9.43698 29.2712C9.42966 27.5576 10.4346 25.9957 11.9971 25.2921ZM1.98264 41.5855C1.79637 41.5855 1.64478 41.434 1.64478 41.2476V36.8351C1.64478 36.6488 1.79637 36.4972 1.98264 36.4972H36.3918L36.4005 38.5507C36.4011 38.6706 36.3114 38.7732 36.1922 38.7892C36.1921 38.7892 36.192 38.7892 36.1919 38.7892C34.4444 39.0235 31.25 39.535 29.4863 40.3291C28.8001 40.6381 28.1923 41.0676 27.6823 41.5854H1.98264V41.5855ZM53.8546 53.3949H28.1405H28.137H28.1349C27.8576 53.3949 27.6324 53.171 27.6312 52.8932L27.6013 45.8081C27.5941 44.0944 28.599 42.5327 30.1615 41.829C31.6878 41.1418 34.6568 40.6638 36.1273 40.4582C39.0907 42.1653 42.8054 42.1497 45.7546 40.4177C47.2266 40.6106 50.1992 41.0635 51.7319 41.7382C53.3002 42.4286 54.3184 43.9819 54.3255 45.6955L54.3553 52.7807C54.3564 53.0655 54.1173 53.393 53.8546 53.3949Z" fill="#3BC6EC"/>
</svg>
