<svg width="52" height="52" viewBox="0 0 52 52" fill="none" xmlns="http://www.w3.org/2000/svg">
<path d="M47.125 10.5625H46.3125V7.3125H47.9375C48.1528 7.3125 48.36 7.22719 48.5119 7.07444L50.9494 4.63694L49.8006 3.48806L47.6011 5.6875H39.8125V3.25C39.8125 1.90612 38.7189 0.8125 37.375 0.8125C36.0311 0.8125 34.9375 1.90612 34.9375 3.25V5.6875H27.1489L24.9494 3.48806L23.8006 4.63694L26.2381 7.07444C26.39 7.22719 26.5972 7.3125 26.8125 7.3125H28.4375V10.5625H27.625C26.2811 10.5625 25.1875 11.6561 25.1875 13V19.5C25.1875 20.5579 25.8692 21.4516 26.8125 21.788V24.375C26.8125 24.8235 27.1765 25.1875 27.625 25.1875H28.4375V39C28.4375 39.4485 28.0727 39.8125 27.625 39.8125C27.1773 39.8125 26.8125 39.4485 26.8125 39V32.5C26.8125 31.6038 26.0837 30.875 25.1875 30.875V26C25.1875 24.6561 24.0939 23.5625 22.75 23.5625H21.9375V16.25C21.9375 13.1138 19.3862 10.5625 16.25 10.5625H15.3481C16.4044 9.529 17.0625 8.09088 17.0625 6.5C17.0625 3.36375 14.5112 0.8125 11.375 0.8125C8.23875 0.8125 5.6875 3.36375 5.6875 6.5C5.6875 8.09088 6.34562 9.529 7.40187 10.5625H6.5C3.36375 10.5625 0.8125 13.1138 0.8125 16.25V26C0.8125 27.3439 1.90612 28.4375 3.25 28.4375H4.0625V47.9375C4.0625 49.7299 5.52012 51.1875 7.3125 51.1875C9.10487 51.1875 10.5625 49.7299 10.5625 47.9375V38.1875C10.5625 37.739 10.9273 37.375 11.375 37.375C11.8227 37.375 12.1875 37.739 12.1875 38.1875V47.9375C12.1875 49.7299 13.6451 51.1875 15.4375 51.1875C17.2299 51.1875 18.6875 49.7299 18.6875 47.9375V28.4375H19.5C20.8439 28.4375 21.9375 27.3439 21.9375 26V25.1875H22.75C23.1977 25.1875 23.5625 25.5523 23.5625 26V30.875C23.5625 31.7712 24.2913 32.5 25.1875 32.5V39C25.1875 40.3439 26.2811 41.4375 27.625 41.4375C28.9689 41.4375 30.0625 40.3439 30.0625 39V25.1875H30.875C31.3235 25.1875 31.6875 24.8235 31.6875 24.375V21.788C32.6308 21.4516 33.3125 20.5579 33.3125 19.5V13C33.3125 11.6561 32.2189 10.5625 30.875 10.5625H30.0625V7.3125H34.9375V43.0625H30.875C29.5311 43.0625 28.4375 44.1561 28.4375 45.5V46.462C27.4942 46.7984 26.8125 47.6921 26.8125 48.75C26.8125 50.0939 27.9061 51.1875 29.25 51.1875C30.5939 51.1875 31.6875 50.0939 31.6875 48.75C31.6875 47.6921 31.0058 46.7984 30.0625 46.462V45.5C30.0625 45.0515 30.4273 44.6875 30.875 44.6875H35.75H39H43.875C44.3227 44.6875 44.6875 45.0515 44.6875 45.5V46.462C43.7442 46.7984 43.0625 47.6921 43.0625 48.75C43.0625 50.0939 44.1561 51.1875 45.5 51.1875C46.8439 51.1875 47.9375 50.0939 47.9375 48.75C47.9375 47.6921 47.2558 46.7984 46.3125 46.462V45.5C46.3125 44.1561 45.2189 43.0625 43.875 43.0625H39.8125V7.3125H44.6875V10.5625H43.875C42.5311 10.5625 41.4375 11.6561 41.4375 13V19.5C41.4375 20.5579 42.1192 21.4516 43.0625 21.788V24.375C43.0625 24.8235 43.4265 25.1875 43.875 25.1875H47.125C47.5735 25.1875 47.9375 24.8235 47.9375 24.375V21.788C48.8808 21.4516 49.5625 20.5579 49.5625 19.5V13C49.5625 11.6561 48.4689 10.5625 47.125 10.5625ZM7.3125 6.5C7.3125 4.25994 9.13494 2.4375 11.375 2.4375C13.6151 2.4375 15.4375 4.25994 15.4375 6.5C15.4375 8.74006 13.6151 10.5625 11.375 10.5625C9.13494 10.5625 7.3125 8.74006 7.3125 6.5ZM17.0625 17.875V47.9375C17.0625 48.8337 16.3337 49.5625 15.4375 49.5625C14.5413 49.5625 13.8125 48.8337 13.8125 47.9375V38.1875C13.8125 36.8436 12.7189 35.75 11.375 35.75C10.0311 35.75 8.9375 36.8436 8.9375 38.1875V47.9375C8.9375 48.8337 8.20869 49.5625 7.3125 49.5625C6.41631 49.5625 5.6875 48.8337 5.6875 47.9375V17.875H4.0625V26.8125H3.25C2.80231 26.8125 2.4375 26.4477 2.4375 26V16.25C2.4375 14.0099 4.25994 12.1875 6.5 12.1875H16.25C18.4901 12.1875 20.3125 14.0099 20.3125 16.25V23.5625H18.6875V17.875H17.0625ZM20.3125 26C20.3125 26.4477 19.9477 26.8125 19.5 26.8125H18.6875V25.1875H20.3125V26ZM28.4375 23.5625V21.9375H30.0625V23.5625H28.4375ZM31.6875 13V19.5C31.6875 19.9477 31.3227 20.3125 30.875 20.3125H27.625C27.1773 20.3125 26.8125 19.9477 26.8125 19.5V18.6875H28.4375V17.0625H26.8125V15.4375H28.4375V13.8125H26.8125V13C26.8125 12.5523 27.1773 12.1875 27.625 12.1875H30.875C31.3227 12.1875 31.6875 12.5523 31.6875 13ZM29.25 49.5625C28.8023 49.5625 28.4375 49.1985 28.4375 48.75C28.4375 48.3015 28.8023 47.9375 29.25 47.9375C29.6977 47.9375 30.0625 48.3015 30.0625 48.75C30.0625 49.1985 29.6977 49.5625 29.25 49.5625ZM45.5 49.5625C45.0523 49.5625 44.6875 49.1985 44.6875 48.75C44.6875 48.3015 45.0523 47.9375 45.5 47.9375C45.9477 47.9375 46.3125 48.3015 46.3125 48.75C46.3125 49.1985 45.9477 49.5625 45.5 49.5625ZM36.5625 3.25C36.5625 2.80231 36.9273 2.4375 37.375 2.4375C37.8227 2.4375 38.1875 2.80231 38.1875 3.25V5.6875H36.5625V3.25ZM38.1875 43.0625H36.5625V7.3125H38.1875V43.0625ZM44.6875 23.5625V21.9375H46.3125V23.5625H44.6875ZM47.9375 19.5C47.9375 19.9477 47.5727 20.3125 47.125 20.3125H43.875C43.4273 20.3125 43.0625 19.9477 43.0625 19.5V18.6875H44.6875V17.0625H43.0625V15.4375H44.6875V13.8125H43.0625V13C43.0625 12.5523 43.4273 12.1875 43.875 12.1875H47.125C47.5727 12.1875 47.9375 12.5523 47.9375 13V19.5Z" fill="#63E9FF"/>
</svg>
