<svg width="15" height="15" viewBox="0 0 15 15" fill="none" xmlns="http://www.w3.org/2000/svg">
<g clip-path="url(#clip0)">
<path d="M13.1477 0.0575981H7.5H1.8523C0.829298 0.0575981 0 0.886896 0 1.90985V13.0901C0 14.1131 0.829298 14.9424 1.8523 14.9424H7.5H11.2155V13.0102C11.2155 11.9872 12.0448 11.1579 13.0678 11.1579L15 11.0637V1.90985C15 0.886896 14.1707 0.0575981 13.1477 0.0575981ZM11.3474 7.82804C11.3474 8.36968 10.9083 8.80885 10.3664 8.80885H8.80898V10.3663C8.80898 10.9082 8.36993 11.3475 7.82796 11.3475H7.26135H7.172C6.63019 11.3475 6.19081 10.9082 6.19081 10.3663V8.80885H4.63342C4.09187 8.80885 3.65261 8.36968 3.65261 7.82804V7.17171C3.65261 6.63007 4.09187 6.19089 4.63342 6.19089H6.19081V4.63359C6.19081 4.09161 6.63019 3.65252 7.172 3.65252H7.26135H7.82796C8.36993 3.65252 8.80898 4.09161 8.80898 4.63359V6.19089H10.3664C10.9083 6.19089 11.3474 6.63007 11.3474 7.17171V7.82804Z" fill="#D6E6EF"/>
<path d="M11.2119 12.9621V14.9424L14.9999 11.0637H13.1103C12.0619 11.0637 11.2119 11.9136 11.2119 12.9621Z" fill="#DDEDFF"/>
<path d="M10.3666 6.1909H8.80921V4.63359C8.80921 4.09161 8.37016 3.65252 7.82818 3.65252H7.26158H7.17223C6.63042 3.65252 6.19104 4.09161 6.19104 4.63359V6.1909H4.63365C4.09209 6.1909 3.65283 6.63007 3.65283 7.17171V7.82804C3.65283 8.36968 4.09209 8.80886 4.63365 8.80886H6.19104V10.3663C6.19104 10.9082 6.63042 11.3475 7.17223 11.3475H7.26158H7.82818C8.37016 11.3475 8.80921 10.9082 8.80921 10.3663V8.80886H10.3666C10.9085 8.80886 11.3476 8.36968 11.3476 7.82804V7.17171C11.3476 6.63007 10.9085 6.1909 10.3666 6.1909Z" fill="white"/>
</g>
<defs>
<clipPath id="clip0">
<rect width="15" height="15" fill="white"/>
</clipPath>
</defs>
</svg>
